<svg xmlns="http://www.w3.org/2000/svg" width="1200" height="630" viewBox="0 0 1200 630">
  <rect width="1200" height="630" fill="#f7f7f4"/>
  <rect x="72" y="72" width="120" height="120" rx="30" fill="#1677ff"/>
  <path d="M94 121c14-12 28-12 42 0s28 12 42 0" fill="none" stroke="#fff" stroke-linecap="round" stroke-width="12"/>
  <path d="M94 151c14-12 28-12 42 0s28 12 42 0" fill="none" stroke="#bfe0ff" stroke-linecap="round" stroke-width="12"/>
  <text x="72" y="300" fill="#171717" font-family="Arial, Helvetica, sans-serif" font-size="72" font-weight="700">Monitoramento</text>
  <text x="72" y="376" fill="#5d5d5d" font-family="Arial, Helvetica, sans-serif" font-size="34">Níveis, chuva, radar, satélite e barragens</text>
  <path d="M72 498c96-72 192-72 288 0s192 72 288 0 192-72 288 0 128 72 192 24" fill="none" stroke="#1677ff" stroke-linecap="round" stroke-width="18"/>
  <path d="M72 548c96-72 192-72 288 0s192 72 288 0 192-72 288 0 128 72 192 24" fill="none" stroke="#a6d2ff" stroke-linecap="round" stroke-width="18"/>
</svg>
